<?xml version="1.0" encoding="utf-8"?>
<!-- Generator: Adobe Illustrator 19.2.0, SVG Export Plug-In . SVG Version: 6.00 Build 0)  -->
<svg version="1.1" xmlns="http://www.w3.org/2000/svg" xmlns:xlink="http://www.w3.org/1999/xlink" x="0px" y="0px"
	 viewBox="0 0 200 200" style="enable-background:new 0 0 200 200;" xml:space="preserve">
<style type="text/css">
	.st0{fill:#FFFFFF;}
</style>
<g id="Layer_3">
</g>
<g id="Layer_2">
</g>
<g id="Layer_1">
	<g>
		<g>
			<path class="st0" d="M83.6,68.9c0,0-12.9-6.3-18.3,11.5c-3.2,10.6-9.5,24.9-10.8,35.5c-0.5,3.8-0.3,7.1,0.9,9.7
				c1.1,2.3,2.9,3.9,5.9,4.6c15.5,3.9,1.4,0.1,20.3,5.3s26-46.9,26.2-47.9C108.8,82.4,107,70.9,83.6,68.9z"/>
			<path d="M83.6,69c0,0-0.7-0.3-2.1-0.6c-1.4-0.3-3.5-0.5-5.9,0.2c-2.5,0.6-5,2.7-6.8,5.8c-1.9,3.1-2.6,7.1-4.1,11.5
				c-1.4,4.4-3,9-4.6,14c-1.5,4.9-3.1,10.2-3.9,15.7c-0.4,2.7-0.4,5.5,0.3,7.9c0.1,0.3,0.2,0.6,0.3,0.9l0.2,0.4
				c0.1,0.2,0.2,0.4,0.2,0.5c0.3,0.5,0.6,1,1,1.4c0.8,0.8,1.9,1.4,3.1,1.8c1.4,0.3,2.9,0.7,4.3,1.1c1.5,0.3,2.9,0.7,4.4,1
				c1.6,0.4,3,0.8,4.5,1.2l4.4,1.2l2.2,0.6l0.9,0.3l1.1,0.2c0.2,0,0.4,0.1,0.5,0.1l0.4,0c0.3,0,0.5,0,0.8,0c0.6-0.1,1.2-0.2,1.8-0.4
				c2.4-0.8,4.4-2.8,6.1-5c1.7-2.2,3.1-4.8,4.3-7.4c1.2-2.6,2.2-5.2,3.1-7.9c1.8-5.3,3.2-10.6,4.4-15.6c0.6-2.5,1.1-5,1.6-7.4
				c0.2-1.2,0.4-2.4,0.6-3.5c0.1-0.3,0.1-0.5,0.1-0.8c0-0.3,0.1-0.5,0-0.8c0-0.5,0-1.1-0.1-1.6c-0.3-2.1-1.2-3.9-2.3-5.5
				c-1.2-1.5-2.6-2.8-4.1-3.8c-3-1.9-6.1-3-8.6-3.7c-2.6-0.6-4.6-1.1-6-1.3L83.6,69L83.6,69z M83.6,68.8c0.1,0,0.8,0.1,2.2,0.2
				c1.4,0.1,3.5,0.5,6.1,1c2.6,0.6,5.7,1.6,8.9,3.5c1.6,0.9,3.2,2.2,4.5,3.8c1.3,1.6,2.3,3.7,2.7,5.9c0.2,1.1,0.2,2.3,0.1,3.5
				c-0.2,1.2-0.4,2.4-0.6,3.6c-0.4,2.4-0.9,4.9-1.4,7.5c-1.1,5.1-2.4,10.5-4.2,15.9c-0.9,2.7-1.9,5.4-3.2,8.1
				c-1.2,2.7-2.6,5.3-4.4,7.7c-1.8,2.4-4,4.7-6.9,5.7c-0.7,0.3-1.5,0.4-2.2,0.5c-0.4,0-0.8,0-1.2,0l-0.6,0c-0.2,0-0.4-0.1-0.6-0.1
				l-1.1-0.2c-0.4-0.1-0.7-0.2-1.1-0.3l-2.2-0.6c-2.9-0.8-5.9-1.6-8.8-2.4c-3-0.7-5.9-1.4-8.8-2.2c-1.5-0.4-2.8-1.2-3.9-2.3
				c-1.1-1.1-1.8-2.5-2.2-3.9c-0.8-2.9-0.6-5.9-0.3-8.7c0.8-5.7,2.5-10.9,4.2-15.9c1.7-5,3.4-9.6,4.9-13.9C65,81.3,66,77.1,68,74
				c2-3.2,4.7-5.3,7.4-5.9c2.6-0.7,4.8-0.3,6.2,0C82.8,68.4,83.5,68.7,83.6,68.8z"/>
		</g>
		<g>
			<path class="st0" d="M99.6,99c0,0-12.6-15.2-34.5-11.8"/>
			<path d="M99.5,99.1c0,0-0.1-0.1-0.4-0.3c-0.2-0.2-0.6-0.4-1-0.7c-0.9-0.6-2.1-1.4-3.6-2.3c-0.7-0.5-1.6-0.9-2.4-1.4
				c-0.9-0.5-1.8-0.9-2.7-1.4c-1-0.5-2-0.9-3-1.3c-0.5-0.2-1-0.4-1.6-0.6l-1.6-0.5c-1-0.4-2.2-0.7-3.2-1c-1.1-0.3-2.1-0.5-3.2-0.8
				c-0.5-0.1-1-0.2-1.5-0.3c-0.5-0.1-1-0.2-1.5-0.3c-1-0.2-1.9-0.3-2.8-0.4c-0.4-0.1-0.8-0.1-1.2-0.1c-0.4-0.1-0.8-0.1-1.1-0.1
				c-0.7,0-1.3-0.1-1.9-0.1c-1-0.1-1.7-0.2-1.7-0.2l0-0.2c0,0,0.6-0.1,1.6-0.2c0.5-0.1,1.1-0.1,1.9-0.2c0.7-0.1,1.5,0,2.4-0.1
				c0.9,0,1.9-0.1,2.9,0.1c1,0.1,2.1,0.1,3.2,0.3c0.6,0.1,1.1,0.2,1.7,0.3c0.6,0.1,1.1,0.2,1.7,0.4c1.1,0.3,2.3,0.6,3.4,1l1.7,0.6
				c0.5,0.2,1.1,0.5,1.6,0.7c1.1,0.5,2.1,1,3.1,1.6c1,0.6,1.9,1.1,2.7,1.7c0.8,0.6,1.6,1.1,2.3,1.7c1.4,1.1,2.5,2.1,3.2,2.9
				c0.7,0.7,1.1,1.2,1.1,1.2L99.5,99.1z"/>
		</g>
		<g>
			<path class="st0" d="M89.7,71.9c0,0-9,12.8-7.2,17.6"/>
			<path d="M89.8,71.9c0,0-0.2,1.3-0.9,3.1c-0.1,0.4-0.3,0.9-0.5,1.4c-0.2,0.5-0.4,1-0.6,1.5c-0.2,0.5-0.4,1.1-0.7,1.6
				c-0.2,0.5-0.5,1.1-0.8,1.6c-0.3,0.5-0.5,1-0.8,1.5c-0.2,0.5-0.5,1-0.8,1.5c-0.2,0.5-0.5,0.9-0.7,1.4c-0.2,0.4-0.4,0.9-0.6,1.2
				c-0.2,0.4-0.3,0.7-0.4,1.1c-0.1,0.3-0.2,0.6-0.3,0.9c-0.1,0.3-0.1,0.5-0.1,0.6c0,0.2,0,0.2,0,0.2l-0.2,0.1c0,0-0.1-0.3-0.2-0.8
				c0-0.3-0.1-0.6-0.1-1c0-0.4,0-0.8,0.1-1.3c0.3-1.8,1.2-4.1,2.3-6.3c2.2-4.4,5.1-8.3,5.1-8.3L89.8,71.9z"/>
		</g>
		<g>
			<path class="st0" d="M90,69.7c0,0,5.4-36.9,30-24.3s25.2,11.7,30.4,6.8"/>
			<path d="M89,69.5c0,0,0.2-1.3,0.7-3.4c0.5-2.2,1.4-5.2,2.9-8.8c0.8-1.8,1.7-3.6,2.8-5.5c1.2-1.9,2.6-3.8,4.4-5.4
				c1.8-1.6,4-3,6.5-3.7c2.5-0.7,5.2-0.6,7.7-0.1c0.6,0.2,1.2,0.3,1.9,0.5l1.8,0.7c1.2,0.5,2.3,1.1,3.4,1.6c2.2,1.2,4.3,2.3,6.4,3.3
				c4.2,2.1,8.1,4.1,11.6,5.4c1.8,0.6,3.4,1.1,4.9,1.2c1.5,0.1,2.8-0.4,3.7-1.1c0.9-0.6,1.5-1.2,2-1.6c0.4-0.4,0.7-0.6,0.7-0.6
				s-0.2,0.2-0.6,0.6c-0.4,0.4-1,1-1.9,1.7c-0.9,0.6-2.2,1.2-3.7,1.2c-1.5,0-3.2-0.5-5-1.1c-3.6-1.2-7.6-3.1-11.8-5.1
				c-2.1-1-4.3-2.1-6.5-3.2c-1.1-0.6-2.2-1-3.4-1.5l-1.7-0.6c-0.6-0.2-1.2-0.3-1.8-0.4c-2.4-0.5-4.9-0.5-7.1,0.2
				c-2.3,0.7-4.3,2-5.9,3.6c-1.6,1.6-2.9,3.4-4,5.2c-1.1,1.8-1.9,3.6-2.6,5.4c-1.4,3.4-2.1,6.5-2.6,8.6c-0.5,2.1-0.6,3.3-0.6,3.3
				L89,69.5z"/>
		</g>
	</g>
</g>
</svg>
