<svg id="Layer_1" data-name="Layer 1" xmlns="http://www.w3.org/2000/svg" viewBox="0 0 96.26 93.66"><title>mouse2</title><g id="Layer_1-2" data-name="Layer 1"><path d="M36.6,35.9S23.7,29.6,18.3,47.4C15.1,58,8.8,72.3,7.5,82.9c-0.5,3.8-.3,7.1.9,9.7a8.11,8.11,0,0,0,5.9,4.6c15.5,3.9,1.4.1,20.3,5.3s26-46.9,26.2-47.9C61.8,49.4,60,37.9,36.6,35.9Z" transform="translate(-7.14 -9.2)" style="fill:#fff"/><path d="M36.6,36a12.59,12.59,0,0,0-2.1-.6,12,12,0,0,0-5.9.2c-2.5.6-5,2.7-6.8,5.8s-2.6,7.1-4.1,11.5-3,9-4.6,14A106,106,0,0,0,9.2,82.6a19,19,0,0,0,.3,7.9l0.3,0.9L10,91.8a1.69,1.69,0,0,1,.2.5,7.1,7.1,0,0,0,1,1.4,7.93,7.93,0,0,0,3.1,1.8c1.4,0.3,2.9.7,4.3,1.1s2.9,0.7,4.4,1,3,0.8,4.5,1.2l4.4,1.2,2.2,0.6,0.9,0.3,1.1,0.2a4.33,4.33,0,0,1,.5.1h1.2a11.63,11.63,0,0,0,1.8-.4c2.4-.8,4.4-2.8,6.1-5A38.67,38.67,0,0,0,50,88.4a76.08,76.08,0,0,0,3.1-7.9c1.8-5.3,3.2-10.6,4.4-15.6,0.6-2.5,1.1-5,1.6-7.4,0.2-1.2.4-2.4,0.6-3.5a2.2,2.2,0,0,0,.1-0.8,2.15,2.15,0,0,0,0-.8,8.6,8.6,0,0,0-.1-1.6,12.9,12.9,0,0,0-2.3-5.5,18.36,18.36,0,0,0-4.1-3.8,32.28,32.28,0,0,0-8.6-3.7c-2.6-.6-4.6-1.1-6-1.3L36.6,36h0Zm0-.2c0.1,0,.8.1,2.2,0.2s3.5,0.5,6.1,1a30.77,30.77,0,0,1,8.9,3.5,16,16,0,0,1,4.5,3.8A13.33,13.33,0,0,1,61,50.2a13.55,13.55,0,0,1,.1,3.5l-0.6,3.6c-0.4,2.4-.9,4.9-1.4,7.5a150.25,150.25,0,0,1-4.2,15.9,68,68,0,0,1-3.2,8.1,39.27,39.27,0,0,1-4.4,7.7c-1.8,2.4-4,4.7-6.9,5.7a8.73,8.73,0,0,1-2.2.5H36.4c-0.2,0-.4-0.1-0.6-0.1l-1.1-.2-1.1-.3-2.2-.6-8.8-2.4c-3-.7-5.9-1.4-8.8-2.2a8.63,8.63,0,0,1-3.9-2.3,9,9,0,0,1-2.2-3.9A23.25,23.25,0,0,1,7.4,82a86.11,86.11,0,0,1,4.2-15.9c1.7-5,3.4-9.6,4.9-13.9C18,48.3,19,44.1,21,41s4.7-5.3,7.4-5.9a12.74,12.74,0,0,1,6.2,0A7.31,7.31,0,0,1,36.6,35.8Z" transform="translate(-7.14 -9.2)"/><path d="M52.6,66A38.64,38.64,0,0,0,18.1,54.2" transform="translate(-7.14 -9.2)" style="fill:#fff"/><path d="M52.5,66.1a3,3,0,0,0-.4-0.3c-0.2-.2-0.6-0.4-1-0.7-0.9-.6-2.1-1.4-3.6-2.3-0.7-.5-1.6-0.9-2.4-1.4s-1.8-.9-2.7-1.4-2-.9-3-1.3c-0.5-.2-1-0.4-1.6-0.6l-1.6-.5c-1-.4-2.2-0.7-3.2-1s-2.1-.5-3.2-0.8l-1.5-.3-1.5-.3c-1-.2-1.9-0.3-2.8-0.4a4.87,4.87,0,0,0-1.2-.1,4.48,4.48,0,0,0-1.1-.1c-0.7,0-1.3-.1-1.9-0.1-1-.1-1.7-0.2-1.7-0.2V54.1s0.6-.1,1.6-0.2c0.5-.1,1.1-0.1,1.9-0.2s1.5,0,2.4-.1a14.31,14.31,0,0,1,2.9.1c1,0.1,2.1.1,3.2,0.3l1.7,0.3a10.46,10.46,0,0,1,1.7.4c1.1,0.3,2.3.6,3.4,1l1.7,0.6c0.5,0.2,1.1.5,1.6,0.7a30.13,30.13,0,0,1,3.1,1.6A31.81,31.81,0,0,1,46,60.3c0.8,0.6,1.6,1.1,2.3,1.7a24.75,24.75,0,0,1,3.2,2.9c0.7,0.7,1.1,1.2,1.1,1.2H52.5Z" transform="translate(-7.14 -9.2)"/><path d="M42.7,38.9s-9,12.8-7.2,17.6" transform="translate(-7.14 -9.2)" style="fill:#fff"/><path d="M42.8,38.9a16.36,16.36,0,0,1-.9,3.1,12.13,12.13,0,0,1-.5,1.4l-0.6,1.5a11.11,11.11,0,0,1-.7,1.6,11.94,11.94,0,0,1-.8,1.6c-0.3.5-.5,1-0.8,1.5a10.93,10.93,0,0,1-.8,1.5c-0.2.5-.5,0.9-0.7,1.4a13.39,13.39,0,0,1-.6,1.2,4.87,4.87,0,0,0-.4,1.1l-0.3.9a1.76,1.76,0,0,0-.1.6v0.2l-0.2.1a7.35,7.35,0,0,1-.2-0.8c0-.3-0.1-0.6-0.1-1a6.15,6.15,0,0,1,.1-1.3,24.39,24.39,0,0,1,2.3-6.3,63.34,63.34,0,0,1,5.1-8.3h0.2Z" transform="translate(-7.14 -9.2)"/><path d="M43,36.7S48.4-.2,73,12.4s25.2,11.7,30.4,6.8" transform="translate(-7.14 -9.2)" style="fill:#fff"/><path d="M42,36.5s0.2-1.3.7-3.4a55,55,0,0,1,2.9-8.8,57.2,57.2,0,0,1,2.8-5.5,24.82,24.82,0,0,1,4.4-5.4,16.73,16.73,0,0,1,6.5-3.7A16.7,16.7,0,0,1,67,9.6c0.6,0.2,1.2.3,1.9,0.5l1.8,0.7c1.2,0.5,2.3,1.1,3.4,1.6,2.2,1.2,4.3,2.3,6.4,3.3a126.63,126.63,0,0,0,11.6,5.4A20.48,20.48,0,0,0,97,22.3a5.45,5.45,0,0,0,3.7-1.1,23,23,0,0,0,2-1.6,5.17,5.17,0,0,1,.7-0.6l-0.6.6a19.19,19.19,0,0,1-1.9,1.7,6.78,6.78,0,0,1-3.7,1.2,16.79,16.79,0,0,1-5-1.1,110.79,110.79,0,0,1-11.8-5.1c-2.1-1-4.3-2.1-6.5-3.2a34.93,34.93,0,0,0-3.4-1.5L68.8,11a11.63,11.63,0,0,0-1.8-.4,13.64,13.64,0,0,0-13,3.8,27.77,27.77,0,0,0-4,5.2A33.27,33.27,0,0,0,47.4,25a54.66,54.66,0,0,0-2.6,8.6,24.79,24.79,0,0,0-.6,3.3Z" transform="translate(-7.14 -9.2)"/></g></svg>