
<svg xmlns="http://www.w3.org/2000/svg" version="1.1" xmlns:xlink="http://www.w3.org/1999/xlink" preserveAspectRatio="none" x="0px" y="0px" width="1024px" height="760px" viewBox="0 0 1024 760">
<defs>
<g id="Layer3_0_FILL">
<path fill="#FF9933" stroke="none" d="
M 511.15 296
L 511.15 236 124 236 124 296 511.15 296
M 898 550
L 898 490 124 490 124 550 898 550
M 898 687.5
L 898 627.5 124 627.5 124 687.5 898 687.5 Z"/>
</g>

<g id="Layer2_0_FILL">
<path fill="#FF9933" stroke="none" d="
M 554 144.1
L 554 137.05 554.15 137.05 554.15 117 544 117 544 133.95 520 133.95 520 142 519.95 142 519.95 178.1 544 178.1 544 236 511 236 511 246.05 554.15 246.05 554.15 173 553.95 173 553.95 167.95 530.1 167.95 530.1 144.1 554 144.1 Z"/>

<path fill="#006600" stroke="none" d="
M 562 92
L 537 92 537 117 544 117 554.15 117 562 117 562 92 Z"/>
</g>

<g id="Layer1_0_FILL">
<path fill="#000000" stroke="none" d="
M 174.9 654.7
Q 174.9 652.65 173.65 651.55 172.7 650.7 170.85 650.7
L 167.45 650.7 167.45 664.7 169.65 664.7 169.65 658.95 170.95 658.95 172.8 664.7 175.05 664.7 173 658.35
Q 174.9 657.4 174.9 654.7
M 170.45 652.7
Q 171 652.7 171.35 652.75 171.8 652.85 172.1 653.15 172.65 653.7 172.65 654.85 172.65 656.4 171.7 656.8 171.3 656.95 170.45 656.95
L 169.65 656.95 169.65 652.7 170.45 652.7
M 183.35 652.7
L 183.35 650.7 175.75 650.7 175.75 652.7 178.45 652.7 178.45 664.7 180.65 664.7 180.65 652.7 183.35 652.7
M 159.65 664.7
L 160.2 661.65 163.2 661.65 163.8 664.7 166 664.7 163.15 650.7 160.2 650.7 157.5 664.7 159.65 664.7
M 160.55 659.65
L 161.65 653.4 162.8 659.65 160.55 659.65
M 144.6 652.55
Q 145.95 652.55 146.45 654.6
L 148.5 654
Q 147.6 650.5 144.6 650.5 143.1 650.5 142.1 651.35 140.95 652.3 140.95 653.95 140.95 655.6 142.4 657 142.7 657.3 144.3 658.55 145.4 659.4 145.85 659.9 146.4 660.55 146.4 661.3 146.4 662 145.95 662.4 145.5 662.85 144.8 662.85 143 662.85 142.6 660.35
L 140.5 660.95
Q 141.2 664.9 144.8 664.9 146.5 664.9 147.6 663.9 148.6 662.9 148.6 661.35 148.6 659.85 147.7 658.75 147.1 658.05 145.6 656.9 144.15 655.75 143.75 655.35 143.2 654.7 143.2 653.95 143.2 653.35 143.6 652.9 144 652.55 144.6 652.55
M 154.1 652.7
L 156.8 652.7 156.8 650.7 149.2 650.7 149.2 652.7 151.9 652.7 151.9 664.7 154.1 664.7 154.1 652.7 Z"/>
</g>

<g id="Layer0_0_FILL">
<path fill="#FF9933" stroke="none" d="
M 181 236
L 124 236 124 536 181 536 181 236
M 898 495
L 841 495 841 653 898 653 898 495 Z"/>
</g>
</defs>

<g transform="matrix( 1, 0, 0, 1, 0,0) ">
<use xlink:href="#Layer3_0_FILL"/>
</g>

<g transform="matrix( 1, 0, 0, 1, 0,0) ">
<use xlink:href="#Layer2_0_FILL"/>
</g>

<g transform="matrix( 1, 0, 0, 1, 0,0) ">
<use xlink:href="#Layer1_0_FILL"/>
</g>

<g transform="matrix( 1, 0, 0, 1, 0,0) ">
<use xlink:href="#Layer0_0_FILL"/>
</g>
</svg>
