<?xml version="1.0" encoding="utf-8"?>
<!-- Generator: Adobe Illustrator 19.2.0, SVG Export Plug-In . SVG Version: 6.00 Build 0)  -->
<svg version="1.1" id="Layer_1" xmlns="http://www.w3.org/2000/svg" xmlns:xlink="http://www.w3.org/1999/xlink" x="0px" y="0px"
	 viewBox="0 0 1024 760" style="enable-background:new 0 0 1024 760;" xml:space="preserve">
<style type="text/css">
	.st0{fill:#FF9933;}
	.st1{fill:#006600;}
	.st2{fill:#07AFEA;}
</style>
<g transform="matrix( 1, 0, 0, 1, 0,0) ">
	<g>
		<g id="Layer1_0_FILL">
			<path class="st0" d="M645,95H345v600h300V95z"/>
		</g>
	</g>
</g>
<g transform="matrix( 1, 0, 0, 1, 0,0) ">
	<g>
		<g id="Layer0_0_FILL">
			<path class="st0" d="M848.2,101V45H345v56H848.2z"/>
			<path class="st1" d="M887,45h-38.8v56H887V45z"/>
			<rect x="345" y="636" class="st2" width="300" height="59"/>
		</g>
		<path d="M512.7,658.7h2.7v-2h-7.6v2h2.7v12h2.2V658.7 M506.9,660.7c0-1.4-0.4-2.4-1.3-3.2c-0.6-0.6-1.6-0.8-2.8-0.8h-3.4v14h2.2
			V665h1.3l1.8,5.8h2.3l-2-6.4C506.3,663.7,506.9,662.5,506.9,660.7 M501.6,658.7h0.8c0.4,0,0.7,0,0.9,0c0.3,0.1,0.5,0.2,0.8,0.4
			c0.4,0.4,0.5,0.9,0.5,1.7c0,1-0.3,1.7-0.9,2c-0.3,0.1-0.7,0.2-1.3,0.2h-0.8V658.7 M495.1,656.7h-2.9l-2.7,14h2.1l0.6-3h3l0.6,3
			h2.2L495.1,656.7 M494.8,665.7h-2.3l1.1-6.3L494.8,665.7 M481.2,656.7v2h2.7v12h2.2v-12h2.7v-2H481.2 M478.5,660.6l2-0.6
			c-0.6-2.3-1.9-3.5-3.9-3.5c-1,0-1.8,0.3-2.5,0.8c-0.8,0.6-1.1,1.5-1.1,2.6c0,1.1,0.5,2.1,1.4,3c0.2,0.2,0.8,0.7,1.9,1.5
			c0.7,0.6,1.3,1,1.6,1.4c0.4,0.4,0.5,0.9,0.5,1.4c0,0.5-0.1,0.8-0.4,1.1c-0.3,0.3-0.7,0.4-1.2,0.4c-1.2,0-1.9-0.8-2.2-2.5l-2.1,0.6
			c0.5,2.6,1.9,4,4.3,4c1.1,0,2.1-0.3,2.8-1c0.7-0.7,1-1.5,1-2.6c0-1-0.3-1.9-0.9-2.6c-0.4-0.5-1.1-1.1-2.1-1.8
			c-1-0.8-1.6-1.3-1.9-1.6c-0.4-0.4-0.5-0.9-0.5-1.4c0-0.4,0.1-0.8,0.4-1c0.3-0.2,0.6-0.4,1-0.4
			C477.5,658.5,478.1,659.2,478.5,660.6z"/>
	</g>
</g>
</svg>
