<?xml version="1.0" encoding="utf-8"?>
<!-- Generator: Adobe Illustrator 19.2.0, SVG Export Plug-In . SVG Version: 6.00 Build 0)  -->
<svg version="1.1" id="Layer_1" xmlns="http://www.w3.org/2000/svg" xmlns:xlink="http://www.w3.org/1999/xlink" x="0px" y="0px"
	 viewBox="0 0 252 144" style="enable-background:new 0 0 252 144;" xml:space="preserve">
<style type="text/css">
	.st0{fill:#FF9933;}
	.st1{fill:#006600;}
	.st2{opacity:0.85;fill:#FF9933;enable-background:new    ;}
	.st3{fill:#07AFEA;}
</style>
<g transform="matrix( 1, 0, 0, 1, 0,0) ">
	<g>
		<g id="Layer3_0_FILL">
			<path class="st0" d="M125.8,46.6V35.2H52.5v11.4H125.8 M199.1,94.7V83.4H52.5v11.4H199.1 M124.3,120.8v-11.4H52.5v11.4H124.3z
				 M199.1,120.8v-11.4h-75.6v11.4H199.1z"/>
		</g>
	</g>
</g>
<g transform="matrix( 1, 0, 0, 1, 0,0) ">
	<g>
		<g id="Layer2_0_FILL">
			<rect x="132.4" y="12.5" class="st0" width="1.3" height="4.9"/>
			<rect x="128.8" y="16.2" class="st0" width="4.9" height="1.3"/>
			<rect x="127.7" y="16.2" class="st0" width="1.3" height="4.9"/>
			<rect x="127.7" y="18.7" class="st0" width="1.3" height="4.9"/>
			<rect x="128.8" y="22.3" class="st0" width="4.9" height="1.3"/>
			<rect x="132.4" y="22.8" class="st0" width="1.3" height="1.1"/>
			<rect x="132.4" y="24.2" class="st0" width="1.3" height="7.4"/>
			<rect x="132.4" y="30.4" class="st0" width="1.3" height="4.9"/>
			<rect x="128.8" y="35.2" class="st0" width="4.9" height="1.3"/>
			<rect x="125" y="35.2" class="st0" width="4.9" height="1.3"/>
			<path class="st1" d="M135.5,7.8h-4.7v4.7h1.3h1.9h1.5L135.5,7.8L135.5,7.8z"/>
			<rect x="132.4" y="23.9" class="st2" width="1.3" height="0.4"/>
		</g>
	</g>
</g>
<g transform="matrix( 1, 0, 0, 1, 0,0) ">
	<g>
		<g id="Layer0_0_FILL">
			<path class="st0" d="M63.3,35.2H52.5v56.8h10.8V35.2 M199.1,84.3h-10.8v29.9h10.8V84.3z"/>
		</g>
	</g>
</g>
<rect x="52.4" y="109.4" class="st3" width="17.2" height="11.4"/>
<g transform="matrix( 1, 0, 0, 1, 0,0) ">
	<g>
		<g id="Layer1_0_FILL">
			<path d="M63.5,114.4c0-0.3-0.1-0.5-0.2-0.6c-0.1-0.1-0.3-0.2-0.5-0.2h-0.6v2.7h0.4v-1.1h0.2l0.4,1.1h0.4l-0.4-1.2
				C63.4,115,63.5,114.8,63.5,114.4 M62.7,114.1c0.1,0,0.1,0,0.2,0c0.1,0,0.1,0,0.2,0.1c0.1,0.1,0.1,0.2,0.1,0.3
				c0,0.2-0.1,0.3-0.2,0.4c-0.1,0-0.1,0-0.2,0h-0.2v-0.8L62.7,114.1 M65.1,114.1v-0.4h-1.4v0.4h0.5v2.3h0.4v-2.3H65.1 M60.7,116.3
				l0.1-0.6h0.6l0.1,0.6h0.4l-0.5-2.7h-0.5l-0.5,2.7H60.7 M60.8,115.4l0.2-1.2l0.2,1.2H60.8 M57.8,114c0.2,0,0.3,0.1,0.3,0.4
				l0.4-0.1c-0.1-0.4-0.4-0.7-0.7-0.7c-0.2,0-0.3,0.1-0.5,0.2c-0.2,0.1-0.2,0.3-0.2,0.5c0,0.2,0.1,0.4,0.3,0.6c0,0,0.2,0.1,0.4,0.3
				c0.1,0.1,0.2,0.2,0.3,0.3c0.1,0.1,0.1,0.2,0.1,0.3s0,0.2-0.1,0.2c-0.1,0.1-0.1,0.1-0.2,0.1c-0.2,0-0.4-0.2-0.4-0.5l-0.4,0.1
				c0.1,0.5,0.4,0.8,0.8,0.8c0.2,0,0.4-0.1,0.5-0.2c0.1-0.1,0.2-0.3,0.2-0.5c0-0.2-0.1-0.4-0.2-0.5c-0.1-0.1-0.2-0.2-0.4-0.3
				c-0.2-0.2-0.3-0.2-0.4-0.3c-0.1-0.1-0.1-0.2-0.1-0.3c0-0.1,0-0.2,0.1-0.2C57.7,114.1,57.7,114,57.8,114 M59.6,114.1h0.5v-0.4
				h-1.4v0.4h0.5v2.3h0.4C59.6,116.3,59.6,114.1,59.6,114.1z"/>
		</g>
	</g>
</g>
</svg>
