<?xml version="1.0" encoding="utf-8"?>
<!-- Generator: Adobe Illustrator 19.2.0, SVG Export Plug-In . SVG Version: 6.00 Build 0)  -->
<svg version="1.1" id="Layer_1" xmlns="http://www.w3.org/2000/svg" xmlns:xlink="http://www.w3.org/1999/xlink" x="0px" y="0px"
	 viewBox="0 0 1024 760" style="enable-background:new 0 0 1024 760;" xml:space="preserve">
<style type="text/css">
	.st0{fill:#006600;}
	.st1{fill:#FF9933;}
	.st2{fill:#07AFEA;}
</style>
<g transform="matrix( 1, 0, 0, 1, 0,0) ">
	<g>
		<g id="Layer1_0_FILL">
			<path class="st0" d="M145.1,674H124v30h21.1V674z"/>
			<path class="st1" d="M898,704v-30H145v30H898 M898,252.5v-60H124v60H898 M898,95V35H124v60H898 M898,567.5v-60H124v60H898
				 M898,410v-60H124v60H898z"/>
		</g>
	</g>
</g>
<g transform="matrix( 1, 0, 0, 1, 0,0) ">
	<g>
		<g id="Layer0_0_FILL">
			<path class="st1" d="M898,545h-57v158h57V545 M898,205h-57v158h57V205 M181,385h-57v158h57V385 M181,45h-57v158h57V45z"/>
		</g>
	</g>
</g>
<g transform="matrix( 1, 0, 0, 1, 0,0) ">
</g>
<rect x="807" y="35" class="st2" width="91" height="60"/>
<g id="Layer0_0_FILL_1_">
	<path d="M874.7,59.7h2.7v-2h-7.6v2h2.7v12h2.2L874.7,59.7 M868.9,61.7c0-1.4-0.4-2.4-1.3-3.2c-0.6-0.6-1.6-0.8-2.8-0.8h-3.4v14h2.2
		V66h1.3l1.8,5.8h2.3l-2-6.4C868.3,64.7,868.9,63.5,868.9,61.7 M863.7,59.7h0.8c0.4,0,0.7,0,0.9,0c0.3,0.1,0.6,0.2,0.8,0.4
		c0.4,0.4,0.6,0.9,0.6,1.7c0,1-0.3,1.7-1,2c-0.3,0.1-0.7,0.2-1.3,0.2h-0.8V59.7 M857.2,57.7h-3l-2.7,14h2.2l0.5-3h3l0.6,3h2.2
		L857.2,57.7 M856.8,66.7h-2.3l1.1-6.3L856.8,66.7 M843.2,57.7v2h2.7v12h2.2v-12h2.7v-2L843.2,57.7 M840.5,61.6l2-0.6
		c-0.6-2.3-1.9-3.5-3.9-3.5c-1,0-1.8,0.3-2.5,0.8c-0.8,0.6-1.1,1.5-1.1,2.6s0.5,2.1,1.5,3c0.2,0.2,0.8,0.7,1.9,1.5
		c0.7,0.6,1.3,1,1.5,1.4c0.4,0.4,0.6,0.9,0.6,1.4s-0.2,0.8-0.5,1.1c-0.3,0.3-0.7,0.4-1.2,0.4c-1.2,0-1.9-0.8-2.2-2.5l-2.1,0.6
		c0.5,2.6,1.9,4,4.3,4c1.1,0,2.1-0.3,2.8-1s1-1.5,1-2.6c0-1-0.3-1.9-0.9-2.6c-0.4-0.5-1.1-1.1-2.1-1.8c-1-0.8-1.6-1.3-1.8-1.6
		c-0.4-0.4-0.5-0.9-0.5-1.4c0-0.4,0.1-0.8,0.4-1c0.3-0.2,0.6-0.4,1-0.4C839.5,59.5,840.1,60.2,840.5,61.6z"/>
</g>
</svg>
