<?xml version="1.0" encoding="utf-8"?>
<!-- Generator: Adobe Illustrator 19.2.0, SVG Export Plug-In . SVG Version: 6.00 Build 0)  -->
<svg version="1.1" id="Layer_1" xmlns="http://www.w3.org/2000/svg" xmlns:xlink="http://www.w3.org/1999/xlink" x="0px" y="0px"
	 viewBox="0 0 1024 760" style="enable-background:new 0 0 1024 760;" xml:space="preserve">
<style type="text/css">
	.st0{fill:#FF9933;}
	.st1{fill:#006600;}
	.st2{opacity:0.85;fill:#FF9933;}
	.st3{fill:#07AFEA;}
</style>
<g transform="matrix( 1, 0, 0, 1, 0,0) ">
	<g>
		<g id="Layer3_0_FILL">
			<path class="st0" d="M511.1,246v-60H124v60H511.1 M898,500v-60H124v60H898 M898,637.5v-60H124v60H898z"/>
		</g>
	</g>
</g>
<g transform="matrix( 1, 0, 0, 1, 0,0) ">
	<g>
		<g id="Layer2_0_FILL">
			<rect x="545.8" y="66.2" class="st0" width="7" height="26.1"/>
			
				<rect x="536.2" y="75.9" transform="matrix(4.495521e-011 -1 1 4.495521e-011 450.702 628.702)" class="st0" width="7" height="26.1"/>
			<rect x="520.8" y="85.5" class="st0" width="7" height="26"/>
			<rect x="520.8" y="98.5" class="st0" width="7" height="26"/>
			
				<rect x="536.2" y="107.9" transform="matrix(4.495521e-011 -1 1 4.495521e-011 418.702 660.702)" class="st0" width="7" height="26.1"/>
			<rect x="545.8" y="120.1" class="st0" width="7" height="6"/>
			<rect x="545.8" y="127.6" class="st0" width="7" height="38.9"/>
			<rect x="545.8" y="160.5" class="st0" width="7" height="26"/>
			
				<rect x="536.4" y="176.5" transform="matrix(4.469498e-011 -1 1 4.469498e-011 350.3463 729.381)" class="st0" width="7" height="26"/>
			
				<rect x="516.4" y="176.5" transform="matrix(4.469498e-011 -1 1 4.469498e-011 330.3463 709.381)" class="st0" width="7" height="26"/>
			<path class="st1" d="M562,41h-25v25h7h10.2h7.8V41z"/>
			<rect x="545.9" y="125.9" class="st2" width="7" height="2"/>
		</g>
	</g>
</g>
<g transform="matrix( 1, 0, 0, 1, 0,0) ">
	<g>
		<g id="Layer0_0_FILL">
			<path class="st0" d="M181,186h-57v300h57V186 M898,445h-57v158h57V445z"/>
		</g>
	</g>
</g>
<rect x="123.5" y="577.6" class="st3" width="91" height="60.4"/>
<g transform="matrix( 1, 0, 0, 1, 0,0) ">
	<g>
		<g id="Layer1_0_FILL">
			<path d="M182.3,604c0-1.4-0.4-2.4-1.3-3.2c-0.6-0.6-1.6-0.8-2.8-0.8h-3.4v14h2.2v-5.8h1.3l1.9,5.8h2.3l-2.1-6.4
				C181.7,607.1,182.3,605.8,182.3,604 M177.9,602c0.4,0,0.7,0,0.9,0c0.3,0.1,0.6,0.2,0.8,0.4c0.4,0.4,0.5,0.9,0.5,1.7
				c0,1-0.3,1.7-0.9,2c-0.3,0.1-0.7,0.2-1.3,0.2h-0.8V602H177.9 M190.8,602v-2h-7.6v2h2.7v12h2.2v-12H190.8 M167.1,614l0.6-3h3
				l0.6,3h2.2l-2.9-14h-2.9l-2.7,14H167.1 M168,609l1.1-6.3l1.2,6.3H168 M152.1,601.9c0.9,0,1.5,0.7,1.8,2l2.1-0.6
				c-0.6-2.3-1.9-3.5-3.9-3.5c-1,0-1.8,0.3-2.5,0.8c-0.8,0.6-1.2,1.5-1.2,2.6s0.5,2.1,1.4,3c0.2,0.2,0.8,0.7,1.9,1.5
				c0.7,0.6,1.3,1,1.6,1.4c0.4,0.4,0.5,0.9,0.5,1.4c0,0.5-0.1,0.8-0.4,1.1c-0.3,0.3-0.7,0.4-1.1,0.4c-1.2,0-1.9-0.8-2.2-2.5
				l-2.1,0.6c0.5,2.6,1.9,4,4.3,4c1.1,0,2.1-0.3,2.8-1c0.7-0.7,1-1.5,1-2.6c0-1-0.3-1.9-0.9-2.6c-0.4-0.5-1.1-1.1-2.1-1.8
				c-1-0.8-1.6-1.3-1.9-1.6c-0.4-0.4-0.6-0.9-0.6-1.4c0-0.4,0.1-0.8,0.4-1C151.3,602,151.6,601.9,152.1,601.9 M161.6,602h2.7v-2
				h-7.6v2h2.7v12h2.2V602z"/>
		</g>
	</g>
</g>
</svg>
