<?xml version="1.0" encoding="utf-8"?>
<!-- Generator: Adobe Illustrator 14.0.0, SVG Export Plug-In . SVG Version: 6.00 Build 43363)  -->
<!DOCTYPE svg PUBLIC "-//W3C//DTD SVG 1.1//EN" "http://www.w3.org/Graphics/SVG/1.1/DTD/svg11.dtd">
<svg version="1.1" id="Layer_1" xmlns="http://www.w3.org/2000/svg" xmlns:xlink="http://www.w3.org/1999/xlink" x="0px" y="0px"
	 width="252px" height="144px" viewBox="0 0 252 144" enable-background="new 0 0 252 144" xml:space="preserve">
<g transform="matrix( 1, 0, 0, 1, 0,0) ">
	<g>
		<g id="Layer3_0_FILL">
			<path fill="#FF9933" d="M125.83,46.61V35.242H52.484V46.61H125.83 M199.137,94.736V83.369H52.484v11.367H199.137
				 M122.625,120.789v-11.368H52.484v11.368H122.625z M199.137,120.847v-11.368H123.5v11.368H199.137z"/>
			<rect x="122.299" y="108.668" opacity="0.85" fill="#FF9933" width="1.326" height="12.666"/>
		</g>
	</g>
</g>
<g transform="matrix( 1, 0, 0, 1, 0,0) ">
	<g>
		<g id="Layer2_0_FILL">
			<rect x="132.404" y="12.543" fill="#FF9933" width="1.326" height="4.945"/>
			<rect x="128.767" y="16.2" fill="#FF9933" width="4.945" height="1.327"/>
			<rect x="127.668" y="16.2" fill="#FF9933" width="1.326" height="4.926"/>
			<rect x="127.668" y="18.663" fill="#FF9933" width="1.326" height="4.926"/>
			<rect x="128.767" y="22.264" fill="#FF9933" width="4.945" height="1.326"/>
			<rect x="132.404" y="22.756" fill="#FF9933" width="1.326" height="1.137"/>
			<rect x="132.404" y="24.177" fill="#FF9933" width="1.326" height="7.371"/>
			<rect x="132.404" y="30.411" fill="#FF9933" width="1.326" height="4.926"/>
			<rect x="128.813" y="35.238" fill="#FF9933" width="4.927" height="1.327"/>
			<rect x="125.023" y="35.238" fill="#FF9933" width="4.926" height="1.327"/>
			<path fill="#006600" d="M135.474,7.769h-4.737v4.737h1.326h1.934h1.478V7.769z"/>
			<rect x="132.424" y="23.855" opacity="0.85" fill="#FF9933" enable-background="new    " width="1.326" height="0.379"/>
		</g>
	</g>
</g>
<g transform="matrix( 1, 0, 0, 1, 0,0) ">
	<g>
		<g id="Layer0_0_FILL">
			<path fill="#FF9933" d="M63.284,35.242h-10.8v56.842h10.8V35.242 M199.137,84.316h-10.8v29.936h10.8V84.316z"/>
		</g>
	</g>
</g>
<rect x="52.39" y="109.439" fill="#07AFEA" width="17.242" height="11.445"/>
<g transform="matrix( 1, 0, 0, 1, 0,0) ">
	<g>
		<g id="Layer1_0_FILL">
			<path d="M63.531,114.441c0-0.265-0.076-0.454-0.247-0.605c-0.114-0.113-0.303-0.152-0.53-0.152h-0.645v2.653h0.417v-1.099h0.246
				l0.36,1.099h0.436l-0.398-1.213C63.417,115.029,63.531,114.783,63.531,114.441 M62.697,114.063c0.076,0,0.133,0,0.17,0
				c0.057,0.02,0.114,0.039,0.152,0.076c0.076,0.076,0.095,0.171,0.095,0.322c0,0.189-0.057,0.322-0.17,0.379
				c-0.057,0.02-0.133,0.038-0.247,0.038h-0.151v-0.815H62.697 M65.141,114.063v-0.379h-1.44v0.379h0.511v2.274h0.417v-2.274H65.141
				 M60.65,116.337l0.114-0.568h0.568l0.114,0.568h0.417l-0.55-2.653h-0.549l-0.512,2.653H60.65 M60.821,115.39l0.208-1.194
				l0.228,1.194H60.821 M57.809,114.045c0.17,0,0.284,0.132,0.341,0.379l0.398-0.114c-0.114-0.437-0.36-0.663-0.739-0.663
				c-0.189,0-0.341,0.057-0.474,0.151c-0.152,0.114-0.228,0.284-0.228,0.493c0,0.208,0.095,0.397,0.265,0.568
				c0.038,0.037,0.152,0.133,0.36,0.283c0.133,0.114,0.247,0.189,0.303,0.266c0.076,0.076,0.095,0.171,0.095,0.266
				s-0.019,0.151-0.076,0.209c-0.057,0.057-0.133,0.075-0.208,0.075c-0.227,0-0.36-0.151-0.417-0.474l-0.398,0.113
				c0.095,0.492,0.36,0.758,0.814,0.758c0.208,0,0.398-0.057,0.531-0.189c0.132-0.133,0.189-0.283,0.189-0.492
				c0-0.189-0.057-0.36-0.17-0.492c-0.076-0.096-0.208-0.209-0.398-0.342c-0.189-0.151-0.303-0.246-0.36-0.303
				c-0.076-0.076-0.113-0.171-0.113-0.266c0-0.076,0.019-0.151,0.076-0.189C57.657,114.063,57.714,114.045,57.809,114.045
				 M59.608,114.063h0.512v-0.379h-1.44v0.379h0.511v2.274h0.417V114.063z"/>
		</g>
	</g>
</g>
</svg>
